<?xml version="1.0" encoding="UTF-8" standalone="no"?>
<!-- Created with Inkscape (http://www.inkscape.org/) -->

<svg
    xmlns:dc="http://purl.org/dc/elements/1.1/"
    xmlns:cc="http://creativecommons.org/ns#"
    xmlns:rdf="http://www.w3.org/1999/02/22-rdf-syntax-ns#"
    xmlns:svg="http://www.w3.org/2000/svg"
    xmlns="http://www.w3.org/2000/svg"
    xmlns:sodipodi="http://sodipodi.sourceforge.net/DTD/sodipodi-0.dtd"
    xmlns:inkscape="http://www.inkscape.org/namespaces/inkscape"
    id="svg4143"
    version="1.1"
    inkscape:version="0.91 r13725"
    width="531.25"
    height="618.75"
    viewBox="0 0 531.25 618.75"
    sodipodi:docname="小黑帽161211.svg"
    inkscape:export-filename="C:\Users\SL\Downloads\小黑帽(向量)\小黑帽161211.png"
    inkscape:export-xdpi="350"
    inkscape:export-ydpi="350">
    <metadata
        id="metadata4149">
        <rdf:RDF>
            <cc:Work
                rdf:about="">
                <dc:format>image/svg+xml</dc:format>
                <dc:type
                    rdf:resource="http://purl.org/dc/dcmitype/StillImage"/>
                <dc:title></dc:title>
            </cc:Work>
        </rdf:RDF>
    </metadata>
    <defs
        id="defs4147"/>
    <sodipodi:namedview
        pagecolor="#ffffff"
        bordercolor="#666666"
        borderopacity="1"
        objecttolerance="10"
        gridtolerance="10"
        guidetolerance="10"
        inkscape:pageopacity="0"
        inkscape:pageshadow="2"
        inkscape:window-width="1920"
        inkscape:window-height="1001"
        id="namedview4145"
        showgrid="false"
        showguides="true"
        inkscape:guide-bbox="true"
        inkscape:zoom="1.6969697"
        inkscape:cx="131.4224"
        inkscape:cy="338.75139"
        inkscape:window-x="-9"
        inkscape:window-y="-9"
        inkscape:window-maximized="1"
        inkscape:current-layer="layer1">
        <sodipodi:guide
            position="307.60714,619.92857"
            orientation="0,1"
            id="guide4171"/>
    </sodipodi:namedview>
    <g
        inkscape:groupmode="layer"
        id="layer8"
        inkscape:label="Layer 5"
        style="display:inline">
        <path
            style="fill:#000000;fill-opacity:1;fill-rule:evenodd;stroke:#000000;stroke-width:1px;stroke-linecap:butt;stroke-linejoin:miter;stroke-opacity:1"
            d="m 153.67817,184.82207 c 8.24874,-14.14087 18.50224,-63.16777 20.62356,-65.9962 2.12132,-2.82843 -13.08138,-40.305449 -10.96006,-48.083623 2.12132,-7.778175 10.6066,-18.384776 27.57716,-20.506097 16.97056,-2.12132 84.35602,4.742092 104.88762,6.600324 27.34188,2.474603 22.15559,-5.30339 49.73276,-8.132178 27.75596,-2.847128 90.0789,2.380766 98.76003,14.613421 12.96375,18.267315 7.51116,11.239928 12.1381,28.873196 6.98185,26.607847 -20.85956,45.726477 -33.58749,61.989937 -12.72792,16.26345 -21.2132,31.11269 -24.04163,52.3259 -2.82842,21.2132 -2.12132,45.25483 2.12132,64.34672 4.24264,19.09188 6.01032,21.0952 6.01032,21.0952 0,0 25.22038,-2.35697 60.57572,10.37095 35.35534,12.72793 35.20854,8.41404 39.7158,23.92417 1.21335,4.17531 -4.42029,30.64438 -37.94956,42.19095 -47.29481,16.28705 16.38906,-2.91145 -38.53633,12.37356 -24.58105,6.84058 -53.38701,-6.59996 -70.35758,-12.25681 -16.97056,-5.65686 -195.63203,-41.83659 -225.33052,-58.80715 -29.69848,-16.97056 -73.5391,-38.89087 -77.781741,-51.6188 -4.242641,-12.72792 12.020815,-33.23402 26.162951,-43.13351 14.142135,-9.8995 43.60498,-6.95216 54.91869,-7.65927 11.3137,-0.70711 15.32088,-22.51069 15.32088,-22.51069 z"
            id="path4795"
            inkscape:connector-curvature="0"
            sodipodi:nodetypes="csssssssssscsssssssssc"/>
    </g>
    <g
        inkscape:groupmode="layer"
        id="layer5"
        inkscape:label="Layer 3"
        style="display:inline">
        <path
            style="fill:#000000;fill-rule:evenodd;stroke:#000000;stroke-width:1px;stroke-linecap:butt;stroke-linejoin:miter;stroke-opacity:1"
            d="m 216.84402,446.31592 c 6.67534,-21.29549 -1.85461,-26.82439 -1.85461,-26.82439 l -6.55456,-20.97458 c 0,0 67.51192,4.58819 87.17558,-5.8991 19.66367,-10.48729 71.96777,-0.13234 71.96777,-0.13234 0,0 24.94199,8.8957 9.45355,16.45255 -25.1853,12.28797 -43.1939,35.07 -49.74846,37.03637 -6.55455,1.96636 9.62084,-4.85287 29.93996,37.09628 20.31912,41.94915 28.84628,31.06484 15.73717,49.4176 -13.10911,18.35275 -21.50394,34.54687 -77.87311,32.5805 -56.36917,-1.96636 -103.6943,-2.03253 -107.62703,-13.83073 -3.93274,-11.7982 -3.27728,-22.28548 -3.27728,-22.28548 0,0 1.31091,4.58818 -9.83183,8.52092 -11.14275,3.93273 -22.87478,-0.65546 -33.03121,-13.3738 -10.4278,-13.05814 -15.86705,-7.93921 0.25843,-18.08807 18.22041,-11.46735 13.9033,-20.99157 24.72129,-38.67187 12.51357,-20.45146 10.73862,-17.90312 17.22785,-26.9336 4.796,-6.67417 15.06043,8.27361 -14.64973,-13.43997 -30.85679,-22.55158 -44.11594,-28.17493 -60.09091,-28.21955 -29.340206,-0.082 11.80443,-14.38505 17.04808,-17.00687 5.24364,-2.62182 5.36974,0.45694 22.41159,-8.71944 17.04184,-9.17638 46.42373,14.35386 46.42373,14.35386 0,0 18.48738,21.20597 21.96898,49.28966 4.94702,39.90413 0.20475,9.65205 0.20475,9.65205 z"
            id="path4786"
            inkscape:connector-curvature="0"
            sodipodi:nodetypes="cccscsssssscssssssssscsc"/>
    </g>
    <g
        inkscape:groupmode="layer"
        id="layer1"
        inkscape:label="Layer 6">
        <path
            style="fill:none;fill-rule:evenodd;stroke:#000000;stroke-width:1px;stroke-linecap:butt;stroke-linejoin:miter;stroke-opacity:1"
            d="m 157.92857,184.44643 c 0,0 8.25,-11.19643 11.19643,-12.375 2.94643,-1.17857 45.96429,-12.375 114.32143,25.33928 68.35714,37.71429 99.58928,60.10715 111.375,77.78572 11.78571,17.67857 10.01786,19.44643 10.01786,19.44643 0,0 -25.92858,4.125 -42.42858,0 -16.5,-4.125 -53.03571,-38.30357 -71.89285,-55.98215 C 271.66071,220.98214 256.33929,202.125 229.82143,194.46429 203.30357,186.80357 193.88342,184.44644 173.25,184.44643 Z"
            id="path3360"
            inkscape:connector-curvature="0"
            sodipodi:nodetypes="cssscssssc"/>
        <path
            style="fill:#ffffff;fill-rule:evenodd;stroke:#000000;stroke-width:1px;stroke-linecap:butt;stroke-linejoin:miter;stroke-opacity:1"
            d="m 153.21429,204.48215 c 14.92857,-0.78571 32.80356,-5.10714 45.37499,-2.94642 l 74.83928,16.5 c 4.45674,0.98259 42.12759,11.34877 78.96429,32.4107 44.74112,25.58138 43.01786,31.23214 43.01786,31.23214 0,0 6.87834,12.47624 -6.48213,10.01787 -15.91407,-2.92825 -23.12459,2.54313 -67.17859,-18.26788 -64.43433,-30.43863 1.17859,2.94644 -44.7857,-23.57141 -21.80563,-12.58016 -75.42858,-36.53572 -109.60715,-41.25001 -19.57988,-2.70067 -14.14285,-4.12499 -14.14285,-4.12499 z"
            id="path4163"
            inkscape:connector-curvature="0"
            sodipodi:nodetypes="ccsscssssc"/>
    </g>
    <g
        inkscape:groupmode="layer"
        id="layer3"
        inkscape:label="Layer 1">
        <path
            style="fill:#ffffff;fill-opacity:1;fill-rule:evenodd;stroke:#000000;stroke-width:5;stroke-linecap:butt;stroke-linejoin:round;stroke-miterlimit:4;stroke-dasharray:none;stroke-opacity:1"
            d="m 200.67676,244.10037 c 0,0 -37.336,18.4002 -46.51237,33.47568 -9.17638,15.07547 -4.06508,31.86512 -4.06508,31.86512 l 1.96637,17.63113 c 0,0 -6.11249,12.57874 -9.30872,24.3717 -3.24274,11.96453 -7.0802,24.71763 -0.79404,32.77903 7.66672,9.83183 14.81705,14.16782 41.03527,22.03328 26.21822,7.86547 46.57545,2.29255 39.20123,13.23522 -6.23782,9.25634 91.24065,8.58084 103.69431,1.37083 12.45365,-7.21001 10.69154,-4.99661 26.02596,-30.87881 14.95099,-25.23504 9.61459,-21.0169 -3.32473,-33.44696 -22.98807,-22.08334 -151.60749,-104.67756 -186.65749,-89.85734 -37.14145,15.70455 37.36343,-23.59109 34.025,-23.43285 l -26.25942,1.24474"
            id="path4156"
            inkscape:connector-curvature="0"
            sodipodi:nodetypes="csccsssssssssc"/>
        <path
            style="opacity:0.3;fill:none"
            id="path4158"
            d="m 17.464573,299.65189 c 1.424352,-3.57083 3.063567,-7.05293 4.740284,-10.511 2.465204,-5.34386 6.059128,-10.01741 9.602472,-14.67364 4.155855,-5.71896 8.972618,-10.85775 14.097785,-15.7046 3.378311,-3.3661 7.029406,-6.43981 10.979571,-9.10959 4.111376,-2.5768 8.237268,-5.18288 12.712513,-7.07398 0,0 -7.463912,5.91283 -7.463912,5.91283 l 0,0 c -6.65314,3.07715 10.212715,-6.06827 3.56927,-2.28381 -4.057399,2.60919 -7.821364,5.64883 -11.249203,9.04723 -5.17294,4.78474 -10.084172,9.82841 -14.197757,15.57744 -3.481696,4.59066 -7.047577,9.17958 -9.503743,14.42697 -1.621268,3.37172 -3.261447,6.75948 -4.48594,10.29842 0,0 -8.80134,4.09373 -8.80134,4.09373 z"
            inkscape:connector-curvature="0"/>
        <path
            style="opacity:0.3;fill:none"
            id="path4160"
            d="m 35.783415,327.08969 c 1.536875,-7.03217 4.542321,-13.5933 7.665658,-20.03441 7.960478,-14.59355 18.410283,-27.6203 29.106912,-40.27065 8.124465,-9.30617 16.678694,-18.2573 26.077493,-26.29157 5.453942,-4.66213 7.152692,-5.78309 12.825902,-10.00746 11.15869,-7.88507 22.95302,-15.01453 35.70775,-19.98668 5.0967,-1.94706 10.38113,-3.31905 15.69257,-4.53119 3.02667,-0.79544 6.10777,-1.31417 9.20525,-1.73145 0,0 -7.54119,5.64069 -7.54119,5.64069 l 0,0 c -3.06984,0.44507 -6.12008,0.9968 -9.12506,1.77778 -5.2046,1.24564 -10.40808,2.53974 -15.40757,4.4796 -3.35334,1.32557 -3.9328,1.49195 -7.29138,3.09209 -1.46205,0.69657 -2.80499,1.67485 -4.34687,2.17025 -0.94733,0.30437 3.37435,-2.11067 2.52882,-1.58612 -7.23728,4.48994 -4.23378,2.56793 -11.66168,7.59508 -5.66251,4.15356 -7.58316,5.41982 -13.02673,10.00831 -9.464262,7.97762 -18.055078,16.90859 -26.197152,26.21606 -2.015101,2.38069 -4.067256,4.73051 -6.045304,7.14207 -8.382692,10.21989 -16.205304,21.01612 -22.509812,32.65064 -2.935799,6.22138 -5.824406,12.59923 -6.94525,19.44228 0,0 -8.712357,4.22468 -8.712357,4.22468 z"
            inkscape:connector-curvature="0"/>
        <path
            style="opacity:0.3;fill:none"
            id="path4162"
            d="m 171.83178,203.73099 c -2.6017,2.14042 -5.16691,4.32422 -7.74042,6.49831 -3.65292,3.01845 -7.36173,5.96906 -11.11772,8.85817 -5.91489,4.61111 -12.1128,8.83839 -18.21352,13.19544 -7.06859,4.78281 -13.61063,10.27599 -19.57574,16.37021 -4.52425,4.82501 -8.3439,10.24831 -11.51327,16.0478 -0.86122,1.57592 -1.64901,3.19088 -2.47351,4.78631 -5.568859,11.50176 -9.888194,23.55059 -13.978612,35.64005 -4.062993,11.83412 -6.062448,24.16817 -7.427505,36.55924 -0.570421,6.00527 -0.950273,12.0381 -0.7166,18.07203 0.08184,2.11319 0.368045,5.66636 0.52739,7.7849 0.288659,3.40219 0.535059,6.80759 0.773038,10.2136 0,0 -8.210071,4.24692 -8.210071,4.24692 l 0,0 c -0.181791,-3.42389 -0.380292,-6.84674 -0.649245,-10.26515 -0.165499,-2.29299 -0.422832,-5.56757 -0.502218,-7.85641 -0.21192,-6.11013 0.225952,-12.20934 0.87464,-18.28231 1.491908,-12.47228 3.550165,-24.89924 7.586855,-36.8381 4.021151,-12.07296 8.29097,-24.09332 13.673975,-35.63767 1.462209,-2.95921 2.934671,-6.07874 4.60069,-8.93925 2.530913,-4.3455 5.675503,-8.31625 9.040153,-12.03796 0.91377,-0.95825 1.79585,-1.94774 2.7413,-2.87474 5.17558,-5.07461 10.94806,-9.53329 16.87263,-13.68671 5.98453,-4.31585 12.08525,-8.47669 17.89116,-13.03492 3.72576,-2.86279 7.39948,-5.79114 11.02953,-8.77442 2.50405,-2.12961 5.02027,-4.24644 7.49588,-6.40814 0,0 9.01119,-3.6372 9.01119,-3.6372 z"
            inkscape:connector-curvature="0"/>
        <path
            style="fill:#f9f9f9;fill-rule:evenodd;stroke:#000000;stroke-width:1px;stroke-linecap:butt;stroke-linejoin:miter;stroke-opacity:1"
            d="m 175.933,253.13193 c -11.11921,6.0617 1.70372,0.74161 7.18504,-2.67551 z"
            id="path4186"
            inkscape:connector-curvature="0"
            sodipodi:nodetypes="ccc"/>
    </g>
    <g
        inkscape:groupmode="layer"
        id="layer2"
        inkscape:label="Layer 7">
        <path
            style="fill:#ffffff;fill-rule:evenodd;stroke:#000000;stroke-width:1px;stroke-linecap:butt;stroke-linejoin:miter;stroke-opacity:1"
            d="m 370.07143,56.571428 c 0,-6.652152 60.10714,-0.916317 70.125,14.732144 9.86981,15.417206 12.375,33.589278 5.30357,46.553568 -7.07143,12.96428 -16.49999,21.21429 -30.64285,36.53572 -14.14286,15.32142 -25.92857,48.32142 -23.57143,56.57142 2.35714,8.25 -10.60714,-5.89286 -10.01785,-27.69643 0.58928,-21.80357 7.78009,-22.68123 23.57143,-40.66071 15.12468,-17.22045 23.07927,-22.13167 32.4107,-37.71429 5.15568,-8.609507 -7.66071,-26.51785 -17.67857,-31.821422 -10.01786,-5.303571 -49.5,-16.5 -49.5,-16.5 z"
            id="path4168"
            inkscape:connector-curvature="0"
            sodipodi:nodetypes="cssssssssc"/>
        <ellipse
            style="fill:none"
            id="path4164"
            cx="307.01785"
            cy="328.82144"
            rx="302.30356"
            ry="289.92856"/>
    </g>
    <g
        inkscape:groupmode="layer"
        id="layer4"
        inkscape:label="Layer 2">
        <path
            style="fill:#000000;fill-rule:evenodd;stroke:#000000;stroke-width:1px;stroke-linecap:butt;stroke-linejoin:miter;stroke-opacity:1"
            d="m 257.20324,340.11523 c 33.87583,-13.84448 20.24278,-15.82928 48.62981,-17.04183 26.0887,-1.11438 27.7938,13.83073 34.34836,20.38529 6.55455,6.55455 17.1617,19.26665 21.74989,21.88847 4.58819,2.62182 -18.47261,-3.53572 -21.09444,-5.50209 -2.62182,-1.96636 -27.64089,-15.9993 -27.64089,-15.9993 0,0 -2.7904,0.0218 -16.51431,-3.95334 -8.78847,-2.54561 -36.40583,3.04931 -39.47842,0.2228 z"
            id="path4179"
            inkscape:connector-curvature="0"
            sodipodi:nodetypes="csssscsc"/>
        <path
            style="fill:#000000;fill-rule:evenodd;stroke:#000000;stroke-width:1px;stroke-linecap:butt;stroke-linejoin:miter;stroke-opacity:1"
            d="m 142.81689,313.56617 c 5.83293,2.61558 5.6469,-5.83294 9.57964,-5.17748 3.93273,0.65545 22.1469,0.4632 33.9451,7.67321 11.7982,7.21001 20.51139,24.24561 20.51139,24.24561 l -32.44193,-12.97678 c 0,0 -8.1239,-0.85396 -21.88846,-2.16487 -13.76457,-1.31091 -29.95245,2.56189 -29.95245,2.56189 z"
            id="path4181"
            inkscape:connector-curvature="0"
            sodipodi:nodetypes="cssccscc"/>
    </g>
    <g
        inkscape:groupmode="layer"
        id="layer7"
        inkscape:label="Layer 4">
        <path
            style="fill:#000000;fill-opacity:1;fill-rule:evenodd;stroke:#000000;stroke-width:1px;stroke-linecap:butt;stroke-linejoin:miter;stroke-opacity:1"
            d="m 222,430.25 c -13.5,-31 -10.60714,-29.41071 -11.60714,-31.91071 -1,-2.5 55.35714,-28.67858 94.35714,-23.17858 39,5.5 66.57143,18 66.57143,18 L 331.5,424.25 Z"
            id="path4792"
            inkscape:connector-curvature="0"
            sodipodi:nodetypes="cssccc"/>
    </g>
    <g
        inkscape:groupmode="layer"
        id="layer6"
        inkscape:label="Layer 8"
        style="display:inline"/>
</svg>
